<svg width="46" height="46" viewBox="0 0 46 46" fill="none" xmlns="http://www.w3.org/2000/svg">
<circle cx="23" cy="23" r="23" fill="url(#paint0_linear_311_1198)"/>
<path d="M18.37 18.9626C18.4654 18.8561 18.5862 18.7716 18.7227 18.7158C18.8593 18.6601 19.008 18.6346 19.157 18.6413C19.3058 18.6455 19.4517 18.6806 19.584 18.7439C19.7164 18.8072 19.8319 18.8971 19.922 19.0071L23.429 23.286L26.787 17.6756C26.8761 17.5206 27.0118 17.3931 27.1777 17.3086C27.3436 17.2242 27.5324 17.1865 27.721 17.2001C27.9091 17.2106 28.0902 17.2702 28.2434 17.372C28.3966 17.4739 28.5157 17.6139 28.587 17.7758L30.157 21.336H35V15.8936C35 14.3615 33.66 13.1079 32 13.1079H14C12.35 13.1079 11 14.3615 11 15.8936V21.336H16.163L18.37 18.9626Z" fill="white"/>
<path d="M28.559 22.6165L27.524 20.2672L24.434 25.4301C24.3531 25.5648 24.2374 25.6787 24.0973 25.7615C23.9572 25.8444 23.7971 25.8936 23.6314 25.9046C23.4657 25.9157 23.2997 25.8883 23.1483 25.8249C22.9968 25.7615 22.8648 25.6641 22.764 25.5415L19.078 21.0426L17.378 22.8719C17.2841 22.9727 17.1678 23.0537 17.0372 23.1091C16.9066 23.1645 16.7646 23.1932 16.621 23.1931H11V28.1508C11 29.6922 12.35 30.9365 14 30.9365H18.77V33.0351H17.38C16.83 33.0351 16.38 33.4529 16.38 33.9636C16.38 34.4744 16.83 34.8922 17.38 34.8922H27.62C28.17 34.8922 28.62 34.4744 28.62 33.9636C28.62 33.4529 28.17 33.0351 27.62 33.0351H26.23V30.9365H32C33.66 30.9365 35 29.6922 35 28.1508V23.1931H29.485C29.2864 23.1933 29.0923 23.1385 28.9274 23.0358C28.7625 22.9331 28.6343 22.7871 28.559 22.6165Z" fill="white"/>
<defs>
<linearGradient id="paint0_linear_311_1198" x1="0" y1="23" x2="46" y2="23" gradientUnits="userSpaceOnUse">
<stop stop-color="#3170B4"/>
<stop offset="1" stop-color="#5CCCC2"/>
</linearGradient>
</defs>
</svg>
