<svg width="46" height="46" viewBox="0 0 46 46" fill="none" xmlns="http://www.w3.org/2000/svg">
<circle cx="23" cy="23" r="23" fill="url(#paint0_linear_311_1209)"/>
<path d="M32.3645 14.1642C31.5902 14.0096 30.8264 13.8067 30.0774 13.5567C29.7208 13.4442 29.3225 13.3261 28.8635 13.1911C27.1453 12.6842 25.4735 12.0316 23.8663 11.2403C23.5969 11.1071 23.3005 11.0378 23 11.0378C22.6995 11.0378 22.4031 11.1071 22.1338 11.2403C20.5265 12.0316 18.8547 12.6842 17.1365 13.1911C16.6775 13.3261 16.2793 13.4476 15.9226 13.5567C15.1737 13.8067 14.4098 14.0096 13.6355 14.1642C13.1837 14.2475 12.7755 14.487 12.4823 14.8406C12.1891 15.1943 12.0294 15.6398 12.0313 16.0992V21.3428C12.0318 23.7004 12.6624 26.0149 13.8579 28.0469C15.0534 30.0789 16.7703 31.7544 18.8308 32.9L22.0426 34.6842C22.3349 34.8474 22.6641 34.933 22.9989 34.933C23.3336 34.933 23.6628 34.8474 23.9551 34.6842L27.1693 32.9C29.2298 31.7544 30.9466 30.0789 32.1421 28.0469C33.3376 26.0149 33.9682 23.7004 33.9688 21.3428V16.0992C33.9706 15.6398 33.8109 15.1943 33.5177 14.8406C33.2245 14.487 32.8163 14.2475 32.3645 14.1642ZM26.9713 20.2212L22.4713 24.7212C22.3931 24.7997 22.3002 24.862 22.1978 24.9045C22.0955 24.947 21.9858 24.9689 21.875 24.9689C21.7642 24.9689 21.6545 24.947 21.5522 24.9045C21.4499 24.862 21.357 24.7997 21.2788 24.7212L19.0288 22.4712C18.8797 22.3113 18.7986 22.0997 18.8024 21.8811C18.8063 21.6625 18.8949 21.454 19.0494 21.2994C19.204 21.1448 19.4126 21.0562 19.6312 21.0524C19.8498 21.0485 20.0613 21.1297 20.2213 21.2787L21.875 22.9313L25.7788 19.0287C25.9387 18.8797 26.1503 18.7985 26.3689 18.8024C26.5874 18.8062 26.796 18.8948 26.9506 19.0494C27.1052 19.204 27.1937 19.4125 27.1976 19.6311C27.2014 19.8497 27.1203 20.0613 26.9713 20.2212Z" fill="white"/>
<defs>
<linearGradient id="paint0_linear_311_1209" x1="0" y1="23" x2="46" y2="23" gradientUnits="userSpaceOnUse">
<stop stop-color="#3170B4"/>
<stop offset="1" stop-color="#5CCCC2"/>
</linearGradient>
</defs>
</svg>
