<svg width="46" height="46" viewBox="0 0 46 46" fill="none" xmlns="http://www.w3.org/2000/svg">
<circle cx="23" cy="23" r="23" fill="url(#paint0_linear_311_1219)"/>
<path d="M17.5312 28.625H28.4688V21.125H17.5312V28.625ZM20.6562 24.125C20.6562 24.0255 20.6974 23.9302 20.7707 23.8598C20.8439 23.7895 20.9433 23.75 21.0469 23.75H21.8281V23C21.8281 22.9005 21.8693 22.8052 21.9425 22.7348C22.0158 22.6645 22.1151 22.625 22.2188 22.625H23.7812C23.8849 22.625 23.9842 22.6645 24.0575 22.7348C24.1307 22.8052 24.1719 22.9005 24.1719 23V23.75H24.9531C25.0567 23.75 25.1561 23.7895 25.2293 23.8598C25.3026 23.9302 25.3438 24.0255 25.3438 24.125V25.625C25.3438 25.7245 25.3026 25.8198 25.2293 25.8902C25.1561 25.9605 25.0567 26 24.9531 26H24.1719V26.75C24.1719 26.8495 24.1307 26.9448 24.0575 27.0152C23.9842 27.0855 23.8849 27.125 23.7812 27.125H22.2188C22.1151 27.125 22.0158 27.0855 21.9425 27.0152C21.8693 26.9448 21.8281 26.8495 21.8281 26.75V26H21.0469C20.9433 26 20.8439 25.9605 20.7707 25.8902C20.6974 25.8198 20.6562 25.7245 20.6562 25.625V24.125ZM22.2188 25.25H21.4375V24.5H22.2188C22.3224 24.5 22.4217 24.4605 22.495 24.3902C22.5682 24.3198 22.6094 24.2245 22.6094 24.125V23.375H23.3906V24.125C23.3906 24.2245 23.4318 24.3198 23.505 24.3902C23.5783 24.4605 23.6776 24.5 23.7812 24.5H24.5625V25.25H23.7812C23.6776 25.25 23.5783 25.2895 23.505 25.3598C23.4318 25.4302 23.3906 25.5255 23.3906 25.625V26.375H22.6094V25.625C22.6094 25.5255 22.5682 25.4302 22.495 25.3598C22.4217 25.2895 22.3224 25.25 22.2188 25.25ZM34.7188 16.625V14.75C34.7184 14.4517 34.5949 14.1657 34.3752 13.9548C34.1555 13.7439 33.8576 13.6253 33.5469 13.625H12.4531C12.1424 13.6253 11.8445 13.7439 11.6248 13.9548C11.4051 14.1657 11.2816 14.4517 11.2812 14.75V16.625H34.7188ZM32.7656 14.75C32.8429 14.75 32.9184 14.772 32.9826 14.8132C33.0469 14.8544 33.0969 14.913 33.1265 14.9815C33.1561 15.05 33.1638 15.1254 33.1487 15.1982C33.1337 15.2709 33.0965 15.3377 33.0418 15.3902C32.9872 15.4426 32.9176 15.4783 32.8418 15.4928C32.7661 15.5073 32.6875 15.4998 32.6161 15.4715C32.5448 15.4431 32.4838 15.395 32.4408 15.3333C32.3979 15.2717 32.375 15.1992 32.375 15.125C32.375 15.0255 32.4162 14.9302 32.4894 14.8598C32.5627 14.7895 32.662 14.75 32.7656 14.75ZM13.2344 14.75H17.9219C18.0255 14.75 18.1248 14.7895 18.1981 14.8598C18.2713 14.9302 18.3125 15.0255 18.3125 15.125C18.3125 15.2245 18.2713 15.3198 18.1981 15.3902C18.1248 15.4605 18.0255 15.5 17.9219 15.5H13.2344C13.1308 15.5 13.0314 15.4605 12.9582 15.3902C12.8849 15.3198 12.8438 15.2245 12.8438 15.125C12.8438 15.0255 12.8849 14.9302 12.9582 14.8598C13.0314 14.7895 13.1308 14.75 13.2344 14.75ZM11.2812 17.375V31.25C11.2816 31.5483 11.4051 31.8343 11.6248 32.0452C11.8445 32.2561 12.1424 32.3747 12.4531 32.375H33.5469C33.8576 32.3747 34.1555 32.2561 34.3752 32.0452C34.5949 31.8343 34.7184 31.5483 34.7188 31.25V17.375H11.2812ZM29.25 29C29.25 29.0995 29.2088 29.1948 29.1356 29.2652C29.0623 29.3355 28.963 29.375 28.8594 29.375H17.1406C17.037 29.375 16.9377 29.3355 16.8644 29.2652C16.7912 29.1948 16.75 29.0995 16.75 29V20.75C16.75 20.6505 16.7912 20.5552 16.8644 20.4848C16.9377 20.4145 17.037 20.375 17.1406 20.375H28.8594C28.963 20.375 29.0623 20.4145 29.1356 20.4848C29.2088 20.5552 29.25 20.6505 29.25 20.75V29Z" fill="white"/>
<defs>
<linearGradient id="paint0_linear_311_1219" x1="0" y1="23" x2="46" y2="23" gradientUnits="userSpaceOnUse">
<stop stop-color="#3170B4"/>
<stop offset="1" stop-color="#5CCCC2"/>
</linearGradient>
</defs>
</svg>
