<svg width="46" height="46" viewBox="0 0 46 46" fill="none" xmlns="http://www.w3.org/2000/svg">
<circle cx="23" cy="23" r="23" fill="url(#paint0_linear_311_1183)"/>
<g clip-path="url(#clip0_311_1183)">
<path d="M33.6858 18.8921C32.9179 18.1335 31.7547 17.8149 30.7054 18.0714C29.587 16.5969 27.2213 16.4507 25.9406 17.7927L21.6559 22.0647C21.3932 20.6106 20.0103 19.4719 18.5236 19.497C17.6276 19.4972 16.7792 19.8657 16.1722 20.5254C15.588 21.1577 15.2899 21.9832 15.3333 22.8422L15.3902 23.8083C14.6072 23.0515 13.9063 22.2253 13.332 21.3073C12.1221 19.3736 11.5977 16.6387 12.2103 14.4224C12.8553 12.0908 14.5694 10.428 16.683 10.0821C18.7209 9.74823 20.5901 10.4367 22.0899 12.0727C22.4631 12.4804 22.7678 12.8978 23.0089 13.2732C23.2495 12.8978 23.5547 12.4804 23.9273 12.0727C25.4272 10.4367 27.2969 9.74823 29.3348 10.0821C31.4484 10.428 33.1625 12.0908 33.8075 14.4224C34.1982 15.836 34.0771 17.3442 33.6858 18.8921Z" fill="white"/>
<path d="M33.3776 28.0504C32.7782 27.4193 31.7819 27.4062 31.1654 28.01L32.9869 26.1936C33.5924 25.5904 33.5924 24.6123 32.9869 24.0085C32.382 23.3991 31.3847 23.416 30.7961 24.0085L32.5266 22.2829C33.1255 21.6862 33.159 20.713 32.5743 20.1021C31.9732 19.4737 30.972 19.4639 30.3577 20.0759L29.2711 21.1594C29.8705 20.5622 29.904 19.589 29.3193 18.9781C28.7176 18.3503 27.7165 18.3405 27.1022 18.9524L20.2364 25.798L20.0704 22.6162C20.0342 21.7638 19.3114 21.1021 18.4565 21.1381C17.6033 21.1737 16.9381 21.8927 16.9742 22.7468L17.0844 24.6232C17.171 26.6379 16.5139 28.622 15.2262 30.1558C14.9702 30.4613 14.9938 30.9121 15.276 31.1935L21.8759 37.7747C22.1609 38.0588 22.6157 38.0758 22.9242 37.8178C23.9216 36.984 24.9096 36.5829 25.6927 36.3932C26.9454 36.09 28.0896 35.4463 29.0009 34.5381L33.3245 30.2268C33.9212 29.6318 33.9574 28.6619 33.3776 28.0504Z" fill="white"/>
</g>
<defs>
<linearGradient id="paint0_linear_311_1183" x1="0" y1="23" x2="46" y2="23" gradientUnits="userSpaceOnUse">
<stop stop-color="#3170B4"/>
<stop offset="1" stop-color="#5CCCC2"/>
</linearGradient>
<clipPath id="clip0_311_1183">
<rect width="28" height="28" fill="white" transform="translate(9 10)"/>
</clipPath>
</defs>
</svg>
